<mxfile host="app.diagrams.net" agent="Mozilla/5.0 (Windows NT 10.0; Win64; x64) AppleWebKit/537.36 (KHTML, like Gecko) Chrome/136.0.0.0 Safari/537.36" version="27.1.1">
  <diagram name="Страница — 1" id="rAZaIUPDdNUTu3HDEEOh">
    <mxGraphModel dx="2220" dy="1001" grid="1" gridSize="10" guides="1" tooltips="1" connect="1" arrows="1" fold="1" page="1" pageScale="1" pageWidth="827" pageHeight="1169" math="0" shadow="0">
      <root>
        <mxCell id="0" />
        <mxCell id="1" parent="0" />
        <mxCell id="ecJJVoj_GGLBc2fgR5aW-1" value="" style="rounded=0;whiteSpace=wrap;html=1;" vertex="1" parent="1">
          <mxGeometry x="510" y="150" width="930" height="758" as="geometry" />
        </mxCell>
        <mxCell id="ecJJVoj_GGLBc2fgR5aW-2" value="Логотип" style="ellipse;whiteSpace=wrap;html=1;aspect=fixed;" vertex="1" parent="1">
          <mxGeometry x="510" y="151.75" width="70" height="70" as="geometry" />
        </mxCell>
        <mxCell id="ecJJVoj_GGLBc2fgR5aW-3" value="" style="rounded=0;whiteSpace=wrap;html=1;" vertex="1" parent="1">
          <mxGeometry x="650" y="171.75" width="700" height="50" as="geometry" />
        </mxCell>
        <mxCell id="ecJJVoj_GGLBc2fgR5aW-4" value="Главная" style="text;html=1;align=center;verticalAlign=middle;whiteSpace=wrap;rounded=0;" vertex="1" parent="1">
          <mxGeometry x="660" y="181.75" width="60" height="30" as="geometry" />
        </mxCell>
        <mxCell id="ecJJVoj_GGLBc2fgR5aW-5" value="Упражнения" style="text;html=1;align=center;verticalAlign=middle;whiteSpace=wrap;rounded=0;" vertex="1" parent="1">
          <mxGeometry x="740" y="181.75" width="60" height="30" as="geometry" />
        </mxCell>
        <mxCell id="ecJJVoj_GGLBc2fgR5aW-6" value="Журнал тренировок" style="text;html=1;align=center;verticalAlign=middle;whiteSpace=wrap;rounded=0;" vertex="1" parent="1">
          <mxGeometry x="810" y="181.75" width="130" height="30" as="geometry" />
        </mxCell>
        <mxCell id="ecJJVoj_GGLBc2fgR5aW-7" value="Весовой журнал" style="text;html=1;align=center;verticalAlign=middle;whiteSpace=wrap;rounded=0;" vertex="1" parent="1">
          <mxGeometry x="930" y="181.75" width="110" height="33.75" as="geometry" />
        </mxCell>
        <mxCell id="ecJJVoj_GGLBc2fgR5aW-8" value="Весовой журнал" style="text;html=1;align=center;verticalAlign=middle;whiteSpace=wrap;rounded=0;" vertex="1" parent="1">
          <mxGeometry x="1030" y="187.38" width="120" height="22.5" as="geometry" />
        </mxCell>
        <mxCell id="ecJJVoj_GGLBc2fgR5aW-9" value="Трекер питания" style="text;html=1;align=center;verticalAlign=middle;whiteSpace=wrap;rounded=0;" vertex="1" parent="1">
          <mxGeometry x="1150" y="177.38" width="90" height="42.5" as="geometry" />
        </mxCell>
        <mxCell id="ecJJVoj_GGLBc2fgR5aW-10" value="Результаты" style="text;html=1;align=center;verticalAlign=middle;whiteSpace=wrap;rounded=0;" vertex="1" parent="1">
          <mxGeometry x="1260" y="187.38" width="60" height="30" as="geometry" />
        </mxCell>
        <mxCell id="ecJJVoj_GGLBc2fgR5aW-11" value="© 2025 Active Life, Inc. Все права защищены." style="rounded=0;whiteSpace=wrap;html=1;" vertex="1" parent="1">
          <mxGeometry x="650" y="838" width="700" height="70" as="geometry" />
        </mxCell>
        <mxCell id="ecJJVoj_GGLBc2fgR5aW-18" value="Экспорт CSV" style="rounded=1;whiteSpace=wrap;html=1;" vertex="1" parent="1">
          <mxGeometry x="580" y="300" width="110" height="30" as="geometry" />
        </mxCell>
        <mxCell id="ecJJVoj_GGLBc2fgR5aW-20" value="Экспорт JSON" style="rounded=1;whiteSpace=wrap;html=1;" vertex="1" parent="1">
          <mxGeometry x="730" y="300" width="110" height="30" as="geometry" />
        </mxCell>
        <mxCell id="ecJJVoj_GGLBc2fgR5aW-21" value="Графики" style="rounded=0;whiteSpace=wrap;html=1;" vertex="1" parent="1">
          <mxGeometry x="580" y="390" width="280" height="110" as="geometry" />
        </mxCell>
        <mxCell id="ecJJVoj_GGLBc2fgR5aW-23" value="Графики" style="rounded=0;whiteSpace=wrap;html=1;" vertex="1" parent="1">
          <mxGeometry x="960" y="390" width="280" height="110" as="geometry" />
        </mxCell>
        <mxCell id="ecJJVoj_GGLBc2fgR5aW-24" value="Графики" style="rounded=0;whiteSpace=wrap;html=1;" vertex="1" parent="1">
          <mxGeometry x="580" y="560" width="280" height="110" as="geometry" />
        </mxCell>
        <mxCell id="ecJJVoj_GGLBc2fgR5aW-25" value="Графики" style="rounded=0;whiteSpace=wrap;html=1;" vertex="1" parent="1">
          <mxGeometry x="961" y="560" width="280" height="110" as="geometry" />
        </mxCell>
      </root>
    </mxGraphModel>
  </diagram>
</mxfile>
